<?xml version="1.0" encoding="UTF-8" standalone="no"?>
<!-- Created with Inkscape (http://www.inkscape.org/) -->

<svg
   xmlns:dc="http://purl.org/dc/elements/1.1/"
   xmlns:cc="http://creativecommons.org/ns#"
   xmlns:rdf="http://www.w3.org/1999/02/22-rdf-syntax-ns#"
   xmlns:svg="http://www.w3.org/2000/svg"
   xmlns="http://www.w3.org/2000/svg"
   xmlns:sodipodi="http://sodipodi.sourceforge.net/DTD/sodipodi-0.dtd"
   xmlns:inkscape="http://www.inkscape.org/namespaces/inkscape"
   width="606.2937"
   height="133.39005"
   id="svg87"
   version="1.1"
   inkscape:version="0.48.4 r9939"
   sodipodi:docname="enilink-grayscale.svg"
   inkscape:export-filename="/home/ken/Projects/enilink/net.enilink.lift/src/main/webapp/images/enilink-grayscale-dark.png"
   inkscape:export-xdpi="13.014684"
   inkscape:export-ydpi="13.014684">
  <defs
     id="defs89" />
  <sodipodi:namedview
     id="base"
     pagecolor="#ffffff"
     bordercolor="#666666"
     borderopacity="1.0"
     inkscape:pageopacity="0.0"
     inkscape:pageshadow="2"
     inkscape:zoom="1.4"
     inkscape:cx="494.50696"
     inkscape:cy="-2.6142519"
     inkscape:document-units="px"
     inkscape:current-layer="text2998"
     showgrid="false"
     fit-margin-top="0"
     fit-margin-left="0"
     fit-margin-right="0"
     fit-margin-bottom="0"
     inkscape:window-width="1920"
     inkscape:window-height="1176"
     inkscape:window-x="0"
     inkscape:window-y="24"
     inkscape:window-maximized="1" />
  <metadata
     id="metadata92">
    <rdf:RDF>
      <cc:Work
         rdf:about="">
        <dc:format>image/svg+xml</dc:format>
        <dc:type
           rdf:resource="http://purl.org/dc/dcmitype/StillImage" />
        <dc:title></dc:title>
      </cc:Work>
    </rdf:RDF>
  </metadata>
  <g
     inkscape:label="Ebene 1"
     inkscape:groupmode="layer"
     id="layer1"
     transform="translate(-46.853144,-465.66716)">
    <path
       style="color:#000000;fill:#8c8c8c;fill-opacity:1;fill-rule:nonzero;stroke:none;stroke-width:1.64300000999999996;marker:none;visibility:visible;display:inline;overflow:visible;enable-background:accumulate"
       d="m 71.071268,467.66716 0,17.37035 c 26.161493,0 47.365052,21.20355 47.365052,47.36505 0,26.16149 -21.203559,47.36504 -47.365052,47.36504 l 0,17.37035 c 35.747392,0 64.735402,-28.98801 64.735402,-64.73539 0,-35.74739 -28.98801,-64.7354 -64.735402,-64.7354 z"
       id="path3781"
       inkscape:connector-curvature="0"
       inkscape:export-filename="D:\Projekte\komma_rap\net.enilink.lift\src\main\webapp\images\enilink.png"
       inkscape:export-xdpi="12.819547"
       inkscape:export-ydpi="12.819547" />
    <path
       style="color:#000000;fill:#d2d2d2;fill-opacity:1;fill-rule:nonzero;stroke:none;stroke-width:1.64300000999999996;marker:none;visibility:visible;display:inline;overflow:visible;enable-background:accumulate"
       d="m 71.071268,485.03751 0,11.58023 c 19.770903,0 35.816462,16.01392 35.816462,35.78482 0,19.77089 -16.045559,35.78481 -35.816462,35.78481 l 0,11.58023 c 26.161493,0 47.365052,-21.20355 47.365052,-47.36504 0,-26.1615 -21.203559,-47.36505 -47.365052,-47.36505 z"
       id="path3783"
       inkscape:connector-curvature="0"
       inkscape:export-filename="D:\Projekte\komma_rap\net.enilink.lift\src\main\webapp\images\enilink.png"
       inkscape:export-xdpi="12.819547"
       inkscape:export-ydpi="12.819547" />
    <path
       sodipodi:type="arc"
       style="color:#000000;fill:#8c8c8c;fill-opacity:1;fill-rule:nonzero;stroke:none;stroke-width:1.64300000999999996;marker:none;visibility:visible;display:inline;overflow:visible;enable-background:accumulate"
       id="path3791"
       sodipodi:cx="335.71429"
       sodipodi:cy="744.50507"
       sodipodi:rx="26.785715"
       sodipodi:ry="26.785715"
       d="m 362.50001,744.50507 c 0,14.79334 -11.99237,26.78571 -26.78572,26.78571 -14.79334,0 -26.78571,-11.99237 -26.78571,-26.78571 0,-14.79335 11.99237,-26.78572 26.78571,-26.78572 14.79335,0 26.78572,11.99237 26.78572,26.78572 z"
       transform="matrix(0.90448153,0,0,0.90448153,-232.56705,-140.98793)"
       inkscape:export-filename="D:\Projekte\komma_rap\net.enilink.lift\src\main\webapp\images\enilink.png"
       inkscape:export-xdpi="12.819547"
       inkscape:export-ydpi="12.819547" />
    <g
       style="font-size:163.77774048px;font-style:normal;font-variant:normal;font-weight:normal;font-stretch:normal;line-height:125%;letter-spacing:0px;word-spacing:0px;fill:#da2118;fill-opacity:1;stroke:none;font-family:Tw Cen MT Condensed Extra Bold;-inkscape-font-specification:Tw Cen MT Condensed Extra Bold"
       id="text2998">
      <path
         d="m 230.66747,545.9574 -41.8241,0 0,22.95127 q 0,7.19726 1.0396,9.27647 1.03961,2.07921 3.99848,2.07921 3.6786,0 4.91813,-2.75895 1.23953,-2.75895 1.23953,-10.67594 l 0,-13.99468 30.62836,0 0,7.83702 q 0,9.83626 -1.23953,15.11426 -1.23953,5.27799 -5.7978,11.27571 -4.55826,5.99772 -11.5556,8.99658 -6.99734,2.99886 -17.55333,2.99886 -10.23611,0 -18.07313,-2.95888 -7.83702,-2.95887 -12.19537,-8.11691 -4.35834,-5.15804 -6.0377,-11.35568 -1.67936,-6.19765 -1.67936,-18.03315 l 0,-30.94823 q 0,-13.91471 3.75857,-21.95166 3.75857,-8.03694 12.31532,-12.31532 8.55675,-4.27837 19.67252,-4.27837 13.59483,0 22.43147,5.15804 8.83664,5.15804 12.39529,13.6748 3.55865,8.51676 3.55865,23.9509 z m -32.38769,-17.27344 0,-7.75705 q 0,-8.23687 -0.87967,-10.63596 -0.87966,-2.39908 -3.59863,-2.39908 -3.35872,0 -4.15842,2.03922 -0.79969,2.03923 -0.79969,10.99582 l 0,7.75705 z"
         style="fill:#8c8c8c;fill-opacity:1"
         id="path98" />
      <path
         d="m 274.17093,491.01828 -0.55978,9.75629 q 3.51866,-5.83778 8.59673,-8.75667 5.07807,-2.91889 11.71554,-2.91889 8.31684,0 13.59484,3.91851 5.27799,3.91851 6.79741,9.87625 1.51942,5.95773 1.51942,19.87244 l 0,74.37173 -32.30771,0 0,-73.49206 q 0,-10.95584 -0.71973,-13.35493 -0.71973,-2.39908 -3.99848,-2.39908 -3.43869,0 -4.31836,2.75895 -0.87966,2.75895 -0.87966,14.75439 l 0,71.73273 -32.30772,0 0,-106.11966 z"
         style="fill:#8c8c8c;fill-opacity:1"
         id="path100" />
      <path
         d="m 360.29819,467.66716 0,16.87358 -33.26735,0 0,-16.87358 z m 0,23.35112 0,106.11966 -33.26735,0 0,-106.11966 z"
         style="fill:#8c8c8c;fill-opacity:1"
         id="path102" />
      <path
         d="m 406.44065,467.66716 0,103.56063 20.47222,0 0,25.91015 -54.13942,0 0,-129.47078 z"
         style="fill:#d2d2d2;fill-opacity:1"
         id="path104" />
      <path
         d="m 468.81694,467.66716 0,129.47078 -33.6672,0 0,-129.47078 z"
         style="fill:#d2d2d2;fill-opacity:1"
         id="path106" />
      <path
         d="m 557.66315,467.66716 0,129.47078 -29.50879,0 -17.51334,-58.85763 0,58.85763 -28.1493,0 0,-129.47078 28.1493,0 18.87283,58.29784 0,-58.29784 z"
         style="fill:#d2d2d2;fill-opacity:1"
         id="path108" />
      <path
         d="m 651.30756,467.66716 -19.27268,58.45777 21.11198,71.01301 -34.78678,0 -13.59483,-55.4989 0,55.4989 -33.6672,0 0,-129.47078 33.6672,0 0,50.30088 14.95431,-50.30088 z"
         style="fill:#d2d2d2;fill-opacity:1"
         id="path110" />
    </g>
  </g>
</svg>
